:FULLY-SPECIFIED
:FORCE-ALL-JOINTS-BE-3DOF
:DEGREES
510
root 6.05808 16.2338 -5.08228 -169.406 76.8966 -174.022
lfemur -24.7677 -16.3958 -22.313
ltibia 54.3682 -0 0
lfoot -26.8589 -4.90429 -0.0839441
ltoes 7.33393 -0 0
rfemur -58.8507 6.71143 4.15104
rtibia 59.3361 -0 0
rfoot 9.184 9.7185 0.0414039
rtoes -19.9743 0 0
lowerback 9.06917 0.181891 -0.594546
upperback 1.7226 0.438074 3.13145
thorax -3.3207 0.292659 3.54454
lowerneck -8.52772 -12.3747 -3.92964
upperneck 11.7562 -16.4547 2.73985
head 5.48 -8.01029 0.218832
lclavicle -1.06847e-14 1.39149e-14 0
lhumerus -47.1615 -33.9581 117.719
lradius 57.3252 -0 0
lwrist 7.79739 0 0
lhand 4.59612 -0.814016 0.247546
lfingers 7.12502 -0 0
lthumb 29.952 26.4561 0.149349
rclavicle -1.06847e-14 1.39149e-14 0
rhumerus -13.6837 44.6056 -77.4847
rradius 115.72 -0 0
rwrist -4.46493 0 0
rhand 6.65466 -12.2473 0.128034
rfingers 7.12502 -0 0
rthumb 31.9252 -39.2223 0.188826
511
root 6.1093 16.2051 -5.03103 -170.236 75.2385 -174.744
lfemur -24.9317 -15.8694 -22.2926
ltibia 55.5923 -0 0
lfoot -27.1511 -4.3773 -0.0979074
ltoes 6.2809 -0 0
rfemur -58.5299 6.51336 3.51518
rtibia 57.9925 -0 0
rfoot 9.29441 9.8442 0.0474166
rtoes -21.0258 0 0
lowerback 9.34485 0.241951 -0.458366
upperback 1.92153 0.564322 3.38865
thorax -3.2757 0.363659 3.72351
lowerneck -8.37806 -12.6615 -4.1431
upperneck 11.953 -16.8353 2.8856
head 5.5606 -8.1909 0.259306
lclavicle -1.06847e-14 1.39149e-14 0
lhumerus -46.9191 -33.6634 117.622
lradius 57.5293 -0 0
lwrist 8.45576 0 0
lhand 3.44814 -1.1759 0.29926
lfingers 7.12502 -0 0
lthumb 28.8502 26.2239 0.179486
rclavicle -1.06847e-14 1.39149e-14 0
rhumerus -10.6736 43.1504 -76.1693
rradius 117.752 -0 0
rwrist -7.46954 0 0
rhand 5.47797 -12.59 0.196966
rfingers 7.12502 -0 0
rthumb 30.7967 -39.694 0.279539
512
root 6.15239 16.1775 -4.98692 -170.93 73.5605 -175.338
lfemur -25.1305 -15.2867 -22.275
ltibia 56.8751 -0 0
lfoot -27.4473 -3.80742 -0.109345
ltoes 5.18841 -0 0
rfemur -58.1296 6.28985 2.85615
rtibia 56.6251 -0 0
rfoot 9.43848 9.96527 0.0523384
rtoes -22.1405 0 0
lowerback 9.6218 0.303635 -0.310851
upperback 2.12876 0.695588 3.65624
thorax -3.22346 0.43763 3.90602
lowerneck -8.21745 -12.9543 -4.36197
upperneck 12.1427 -17.2252 3.03869
head 5.63997 -8.37572 0.302092
lclavicle -1.06847e-14 1.39149e-14 0
lhumerus -46.6672 -33.3364 117.5
lradius 57.7443 -0 0
lwrist 9.15031 0 0
lhand 2.20872 -1.56478 0.345681
lfingers 7.12502 -0 0
lthumb 27.661 25.9769 0.206206
rclavicle -1.06847e-14 1.39149e-14 0
rhumerus -7.7415 41.4674 -75.0043
rradius 119.78 -0 0
rwrist -10.6072 0 0
rhand 4.13748 -12.9903 0.270106
rfingers 7.12502 -0 0
rthumb 29.5106 -40.2406 0.374725
513
root 6.18918 16.1499 -4.94853 -171.517 71.8802 -175.831
lfemur -25.3606 -14.6556 -22.261
ltibia 58.2018 -0 0
lfoot -27.7442 -3.20194 -0.117799
ltoes 4.06874 -0 0
rfemur -57.656 6.04573 2.18065
rtibia 55.2483 -0 0
rfoot 9.61345 10.0807 0.0560709
rtoes -23.3048 0 0
lowerback 9.89726 0.366173 -0.153874
upperback 2.34202 0.830252 3.93125
thorax -3.16474 0.513689 4.09019
lowerneck -8.04777 -13.2498 -4.58404
upperneck 12.3235 -17.6204 3.19737
head 5.71737 -8.56279 0.346675
lclavicle -1.06847e-14 1.39149e-14 0
lhumerus -46.4094 -32.9813 117.357
lradius 57.9676 -0 0
lwrist 9.87282 0 0
lhand 0.893625 -1.97583 0.384633
lfingers 7.12502 -0 0
lthumb 26.3995 25.7182 0.228278
rclavicle -1.06847e-14 1.39149e-14 0
rhumerus -4.92507 39.5868 -74.0139
rradius 121.783 -0 0
rwrist -13.8419 0 0
rhand 2.65261 -13.4424 0.342777
rfingers 7.12502 -0 0
rthumb 28.0856 -40.8542 0.46842
514
root 6.22149 16.1215 -4.91448 -172.018 70.2151 -176.247
lfemur -25.6186 -13.9841 -22.2516
ltibia 59.5574 -0 0
lfoot -28.0389 -2.56816 -0.122947
ltoes 2.93416 -0 0
rfemur -57.116 5.78564 1.4954
rtibia 53.8765 -0 0
rfoot 9.81659 10.1895 0.0585417
rtoes -24.5054 0 0
lowerback 10.1685 0.42883 0.0106813
upperback 2.55899 0.966739 4.21069
thorax -3.10032 0.590957 4.27408
lowerneck -7.87093 -13.545 -4.80705
upperneck 12.4937 -18.0165 3.35994
head 5.79205 -8.75013 0.392547
lclavicle -1.06847e-14 1.39149e-14 0
lhumerus -46.1489 -32.6027 117.194
lradius 58.1967 -0 0
lwrist 10.615 0 0
lhand -0.481364 -2.40406 0.414293
lfingers 7.12502 -0 0
lthumb 25.0808 25.4508 0.244689
rclavicle -1.06847e-14 1.39149e-14 0
rhumerus -2.25129 37.5407 -73.2113
rradius 123.743 -0 0
rwrist -17.1375 0 0
rhand 1.04285 -13.9406 0.410492
rfingers 7.12502 -0 0
rthumb 26.5402 -41.5271 0.554928
515
root 6.25113 16.0912 -4.88338 -172.45 68.5827 -176.602
lfemur -25.9009 -13.2802 -22.2474
ltibia 60.9271 -0 0
lfoot -28.3282 -1.91337 -0.12461
ltoes 1.79695 -0 0
rfemur -56.5162 5.51398 0.807174
rtibia 52.524 -0 0
rfoot 10.0452 10.2907 0.0597053
rtoes -25.7288 0 0
lowerback 10.4328 0.490902 0.180917
upperback 2.77736 1.10352 4.49155
thorax -3.031 0.668568 4.45579
lowerneck -7.68893 -13.8366 -5.02871
upperneck 12.6517 -18.4094 3.52472
head 5.86326 -8.93575 0.439209
lclavicle -1.06847e-14 1.39149e-14 0
lhumerus -45.889 -32.2047 117.016
lradius 58.429 -0 0
lwrist 11.3687 0 0
lhand -1.90042 -2.84441 0.433243
lfingers 7.12502 -0 0
lthumb 23.72 25.1777 0.254675
rclavicle -1.06847e-14 1.39149e-14 0
rhumerus 0.261615 35.3626 -72.5998
rradius 125.64 -0 0
rwrist -20.4581 0 0
rhand -0.672255 -14.4787 0.469115
rfingers 7.12502 -0 0
rthumb 24.8932 -42.251 0.629023
516
root 6.27993 16.0582 -4.85383 -172.824 67.0004 -176.908
lfemur -26.2043 -12.5518 -22.2492
ltibia 62.2959 -0 0
lfoot -28.6091 -1.24488 -0.12276
ltoes 0.669399 -0 0
rfemur -55.8635 5.23484 0.122835
rtibia 51.2051 -0 0
rfoot 10.2964 10.3831 0.0595443
rtoes -26.9616 0 0
lowerback 10.6873 0.551727 0.354923
upperback 2.99475 1.2391 4.77079
thorax -2.95758 0.745665 4.63338
lowerneck -7.50382 -14.1215 -5.24664
upperneck 12.7959 -18.7948 3.69007
head 5.93029 -9.11768 0.486173
lclavicle -1.06847e-14 1.39149e-14 0
lhumerus -45.6328 -31.7919 116.822
lradius 58.662 -0 0
lwrist 12.1256 0 0
lhand -3.34771 -3.29177 0.440519
lfingers 7.12502 -0 0
lthumb 22.3324 24.9022 0.257745
rclavicle -1.06847e-14 1.39149e-14 0
rhumerus 2.60175 33.0857 -72.1755
rradius 127.454 -0 0
rwrist -23.7676 0 0
rhand -2.47307 -15.0504 0.514998
rfingers 7.12502 -0 0
rthumb 23.1635 -43.0175 0.686126
517
root 6.3097 16.0215 -4.82444 -173.148 65.4856 -177.175
lfemur -26.5255 -11.8068 -22.2575
ltibia 63.6489 -0 0
lfoot -28.8784 -0.569987 -0.117519
ltoes -0.436227 0 0
rfemur -55.1651 4.95198 -0.550657
rtibia 49.9343 -0 0
rfoot 10.5677 10.4659 0.0580691
rtoes -28.1904 0 0
lowerback 10.9292 0.610673 0.530778
upperback 3.20879 1.37205 5.04537
thorax -2.88088 0.821401 4.80493
lowerneck -7.31769 -14.3966 -5.45845
upperneck 12.9247 -19.1684 3.85436
head 5.99239 -9.29391 0.532955
lclavicle -1.06847e-14 1.39149e-14 0
lhumerus -45.3835 -31.3687 116.618
lradius 58.8932 -0 0
lwrist 12.8775 0 0
lhand -4.80737 -3.74094 0.43564
lfingers 7.12502 -0 0
lthumb 20.933 24.6275 0.253696
rclavicle -1.06847e-14 1.39149e-14 0
rhumerus 4.76128 30.7432 -71.9289
rradius 129.165 -0 0
rwrist -27.0299 0 0
rhand -4.3399 -15.6492 0.545109
rfingers 7.12502 -0 0
rthumb 21.3701 -43.8177 0.722461
